{
	"asset":{
		"generator":"Khronos glTF Blender I/O v4.3.47",
		"version":"2.0"
	},
	"scene":0,
	"scenes":[
		{
			"name":"Scene",
			"nodes":[
				0
			]
		}
	],
	"nodes":[
		{
			"mesh":0,
			"name":"7efe8640-c7ea-47c1-9325-42f282d26e8e",
			"rotation":[
				0.7071068286895752,
				0,
				0,
				0.7071068286895752
			]
		}
	],
	"meshes":[
		{
			"name":"7efe8640-c7ea-47c1-9325-42f282d26e8e",
			"primitives":[
				{
					"attributes":{
						"POSITION":0,
						"NORMAL":1,
						"COLOR_0":2
					},
					"indices":3
				}
			]
		}
	],
	"accessors":[
		{
			"bufferView":0,
			"componentType":5126,
			"count":13351,
			"max":[
				0.5351330041885376,
				0.5257989764213562,
				0.2838209867477417
			],
			"min":[
				-0.5309290289878845,
				-0.5402629971504211,
				-0.30701500177383423
			],
			"type":"VEC3"
		},
		{
			"bufferView":1,
			"componentType":5126,
			"count":13351,
			"type":"VEC3"
		},
		{
			"bufferView":2,
			"componentType":5123,
			"count":13351,
			"normalized":true,
			"type":"VEC4"
		},
		{
			"bufferView":3,
			"componentType":5123,
			"count":79605,
			"type":"SCALAR"
		}
	],
	"bufferViews":[
		{
			"buffer":0,
			"byteLength":160212,
			"byteOffset":0,
			"target":34962
		},
		{
			"buffer":0,
			"byteLength":160212,
			"byteOffset":160212,
			"target":34962
		},
		{
			"buffer":0,
			"byteLength":106808,
			"byteOffset":320424,
			"target":34962
		},
		{
			"buffer":0,
			"byteLength":159210,
			"byteOffset":427232,
			"target":34963
		}
	],
	"buffers":[
		{
			"byteLength":586444,
			"uri":"7efe8640-c7ea-47c1-9325-42f282d26e8e.bin"
		}
	]
}
