{
	"asset":{
		"generator":"Khronos glTF Blender I/O v4.3.47",
		"version":"2.0"
	},
	"scene":0,
	"scenes":[
		{
			"name":"Scene",
			"nodes":[
				0
			]
		}
	],
	"nodes":[
		{
			"mesh":0,
			"name":"27db6f20-4897-4905-8c12-ad77a7756703",
			"rotation":[
				0.7071068286895752,
				0,
				0,
				0.7071068286895752
			]
		}
	],
	"meshes":[
		{
			"name":"27db6f20-4897-4905-8c12-ad77a7756703",
			"primitives":[
				{
					"attributes":{
						"POSITION":0,
						"NORMAL":1,
						"COLOR_0":2
					},
					"indices":3
				}
			]
		}
	],
	"accessors":[
		{
			"bufferView":0,
			"componentType":5126,
			"count":13368,
			"max":[
				0.5469290018081665,
				0.548192024230957,
				0.5052769780158997
			],
			"min":[
				-0.5511770248413086,
				-0.5499140024185181,
				-0.47863999009132385
			],
			"type":"VEC3"
		},
		{
			"bufferView":1,
			"componentType":5126,
			"count":13368,
			"type":"VEC3"
		},
		{
			"bufferView":2,
			"componentType":5123,
			"count":13368,
			"normalized":true,
			"type":"VEC4"
		},
		{
			"bufferView":3,
			"componentType":5123,
			"count":78939,
			"type":"SCALAR"
		}
	],
	"bufferViews":[
		{
			"buffer":0,
			"byteLength":160416,
			"byteOffset":0,
			"target":34962
		},
		{
			"buffer":0,
			"byteLength":160416,
			"byteOffset":160416,
			"target":34962
		},
		{
			"buffer":0,
			"byteLength":106944,
			"byteOffset":320832,
			"target":34962
		},
		{
			"buffer":0,
			"byteLength":157878,
			"byteOffset":427776,
			"target":34963
		}
	],
	"buffers":[
		{
			"byteLength":585656,
			"uri":"27db6f20-4897-4905-8c12-ad77a7756703.bin"
		}
	]
}
