{
	"asset":{
		"generator":"Khronos glTF Blender I/O v4.3.47",
		"version":"2.0"
	},
	"scene":0,
	"scenes":[
		{
			"name":"Scene",
			"nodes":[
				0
			]
		}
	],
	"nodes":[
		{
			"mesh":0,
			"name":"5f2da39e-cca4-44df-a6a6-e24c136586eb",
			"rotation":[
				0.7071068286895752,
				0,
				0,
				0.7071068286895752
			]
		}
	],
	"meshes":[
		{
			"name":"5f2da39e-cca4-44df-a6a6-e24c136586eb",
			"primitives":[
				{
					"attributes":{
						"POSITION":0,
						"NORMAL":1,
						"COLOR_0":2
					},
					"indices":3
				}
			]
		}
	],
	"accessors":[
		{
			"bufferView":0,
			"componentType":5126,
			"count":10342,
			"max":[
				0.550000011920929,
				0.22142599523067474,
				0.22670100629329681
			],
			"min":[
				-0.550000011920929,
				-0.5445870161056519,
				-0.5091480016708374
			],
			"type":"VEC3"
		},
		{
			"bufferView":1,
			"componentType":5126,
			"count":10342,
			"type":"VEC3"
		},
		{
			"bufferView":2,
			"componentType":5123,
			"count":10342,
			"normalized":true,
			"type":"VEC4"
		},
		{
			"bufferView":3,
			"componentType":5123,
			"count":61392,
			"type":"SCALAR"
		}
	],
	"bufferViews":[
		{
			"buffer":0,
			"byteLength":124104,
			"byteOffset":0,
			"target":34962
		},
		{
			"buffer":0,
			"byteLength":124104,
			"byteOffset":124104,
			"target":34962
		},
		{
			"buffer":0,
			"byteLength":82736,
			"byteOffset":248208,
			"target":34962
		},
		{
			"buffer":0,
			"byteLength":122784,
			"byteOffset":330944,
			"target":34963
		}
	],
	"buffers":[
		{
			"byteLength":453728,
			"uri":"5f2da39e-cca4-44df-a6a6-e24c136586eb.bin"
		}
	]
}
